<?xml version='1.0' encoding='utf-8'?>
<svg xmlns="http://www.w3.org/2000/svg" version="1.1" width="600px" height="976px" viewBox="0 0 600 976"> <g id="layer1"> <g style="fill:rgb(0,0,0); fill-opacity:1.0; stroke-linejoin: miter"> <path d="M422.54565,351.4738L422.54565,351.4738Q422.54425,351.4738,422.5429,351.4738Q422.54144,351.4738,422.5401,351.4738 Z M86.70343,454.6774Q86.74539,454.6774,86.79257,454.68497L86.79251,454.68497Q86.74536,454.6774,86.70343,454.6774Q86.6615,454.6774,86.624756,454.68497L86.624756,454.68497Q86.66147,454.6774,86.70343,454.6774 Z M414.09955,488.99057Q414.4372,489.17484,414.85242,489.29L416.54767,489.67917Q416.94836,489.80844,417.2594,490.03757Q417.63318,490.31223,417.9134,490.7853Q417.91357,490.7809,417.91553,490.7809Q417.9538,490.7809,418.64435,492.38943Q420.02905,495.55124,419.92804,496.64792Q419.92303,497.75522,418.28796,498.37747L414.1009,489.00284L414.09564,488.99057 Z M418.14008,499.07755Q418.13983,499.07755,418.1397,499.07755Q418.13953,499.07755,418.1394,499.07755 Z M432.04504,508.4645Q432.03778,508.4645,432.03064,508.4645Q432.0235,508.4645,432.0163,508.4645 Z M431.67804,508.4589L432.18835,512.49426L431.67804,508.4589 Z M80.792206,532.0471Q80.88779,532.04846,80.984985,532.04846Q81.0531,532.04846,81.12198,532.0477L81.12265,532.0477Q81.053406,532.04846,80.984985,532.04846Q80.88736,532.04846,80.79129,532.0471 Z M106.337036,627.07935Q106.345245,627.07935,106.353516,627.07947Q106.345245,627.07935,106.337036,627.07935Q106.28549,627.07935,106.236664,627.0856L106.23648,627.0856Q106.28537,627.07935,106.337036,627.07935 Z M86.65643,646.2186Q86.65582,646.2186,86.65527,646.2186Q86.65466,646.2186,86.65408,646.2186 Z M106.70981,630.13586L107.96112,632.48L108.28772,632.3303L108.23184,632.4927L116.24167,635.421Q120.44678,639.10986,134.7544,651.0425Q111.51227,652.0901,97.39365,652.0901Q86.78195,652.0901,81.32431,651.4983Q73.39969,650.7551,68.68909,648.9049Q63.474792,646.75256,63.45166,644.4464Q63.619812,643.65967,65.44299,643.04016L74.00198,640.80164Q79.194305,646.0261,82.93817,647.1361Q84.664,647.74536,86.67969,647.74536Q89.21759,647.74536,92.214935,646.7798Q105.09903,642.3021,106.706116,630.1499L106.70981,630.13586 Z M92.89499,653.5807L92.89499,653.5807Q95.199554,653.6173,97.76489,653.6173Q99.98169,653.6173,102.39322,653.58984L102.394104,653.58984Q99.982086,653.6173,97.76489,653.6173Q95.19913,653.6173,92.894196,653.5807 Z M349.28125,663.5432Q349.19214,663.54346,349.10156,663.54346Q349.01434,663.54346,348.92572,663.5432L348.92908,663.5432Q349.01593,663.54346,349.10156,663.54346Q349.19043,663.54346,349.2779,663.5432 Z M372.14337,670.4314Q372.3675,670.4314,372.55908,670.4895L372.55908,670.4895Q372.3675,670.4314,372.14337,670.4314Q371.9193,670.4314,371.6626,670.4895Q371.9193,670.4314,372.14337,670.4314 Z M526.42163,678.8833Q526.41364,678.8833,526.40564,678.8833Q526.39764,678.8833,526.38965,678.8833 Z M435.05133,282.73965Q434.50873,282.73965,433.99176,282.78934L433.96387,282.78934Q422.06,283.58328,412.24744,292.35812Q405.68744,297.61612,404.9245,310.15952Q403.82587,312.20035,400.32343,314.4548L397.75494,315.70847Q389.28064,313.58218,384.6983,313.58218Q383.8109,313.58218,383.06946,313.66196Q379.4815,313.68533,374.56787,315.71463Q370.46484,317.57657,365.79828,321.31442L341.26025,342.25076Q339.5995,345.38748,340.44458,348.78366Q334.17474,367.32394,328.40625,379.19144Q323.99872,388.76193,315.7713,400.11313Q315.12372,399.86923,314.581,399.86923Q313.29047,399.86923,312.5935,401.2482Q311.01837,406.814,314.2555,410.66788Q304.63025,427.0212,302.3636,436.62277Q297.37872,454.54153,307.97815,474.32877Q298.6503,529.96484,288.4621,552.6332Q260.53873,616.1647,219.84781,636.1826Q221.90686,634.91516,221.46375,634.2002L221.39557,620.63794Q221.1123,616.1061,216.93176,613.7219L218.97879,563.2698Q219.26889,552.0488,218.43079,548.1808Q217.75018,544.17053,214.96622,543.5768Q214.72495,529.145,212.90591,525.1051Q211.66379,521.3992,207.14316,517.44495Q205.80582,503.03415,203.9813,499.09195L188.77942,480.66238Q184.82404,475.38535,174.56805,472.01523L162.59879,453.7645L137.67691,453.4106Q124.72296,449.88644,116.23059,449.88644Q114.164185,449.88644,112.36197,450.09506L92.542175,452.8148Q92.34601,452.69785,92.18393,452.69785Q91.35483,452.69785,91.417145,455.7582Q89.60437,452.62607,86.47241,452.62607Q85.5903,452.62607,84.60361,452.87454L83.907104,457.7314Q82.11972,457.70932,80.46936,457.70932Q61.505127,457.70932,60.62744,460.63467Q55.671722,468.6251,63.817963,469.85782Q52.332123,472.69083,55.045776,482.85117Q57.302185,492.87082,64.25391,492.87082Q67.7464,492.87082,72.42395,490.34183L72.523285,494.55215Q72.23193,494.52768,71.9556,494.52768Q69.25879,494.52768,67.990326,496.8538L67.795105,505.33652Q67.34616,509.11996,76.29602,509.29575L76.31644,518.56006Q72.06003,520.1935,73.00238,526.51404Q73.91815,533.8292,78.805115,533.8292Q79.1145,533.8292,79.43985,533.7998L79.67444,542.2197Q79.65311,542.2195,79.6319,542.2195Q75.53146,542.2195,76.128204,553.552Q76.42697,558.551,81.897705,559.469Q81.29181,564.74304,83.24158,565.81165L83.13049,568.29126Q80.05594,568.9569,78.38492,571.1272Q77.09122,573.36914,77.49356,576.1666Q78.08011,582.22437,85.15701,586.4979L84.761444,591.5399Q71.58362,592.74414,67.980804,603.77966Q62.2901,620.3583,69.24173,630.8026Q44.686966,638.18835,45.740845,644.48267Q55.813354,659.01587,106.78482,664.87476Q184.6879,664.4531,181.35019,663.0504Q201.38864,660.60095,218.62708,651.6311Q290.1118,612.08484,313.12366,507.61923Q314.08966,511.38583,313.99933,513.1249Q311.11688,537.0962,310.4389,552.8871Q310.13336,559.7384,311.18176,566.1029Q307.05432,570.97485,305.6399,601.87317Q300.35092,610.37976,299.5961,615.12524Q298.55545,620.2096,298.63275,628.621Q292.5269,634.2471,291.03217,642.1007Q288.25183,655.9098,289.59186,664.8103L349.33502,665.63525Q349.85022,665.6509,350.33057,665.6509Q355.46936,665.6509,356.63397,663.8645Q358.62598,659.1161,355.54138,656.8064Q356.75055,655.6593,339.3844,652.1228Q336.4806,650.7202,334.38623,646.05505L334.3894,646.05505Q334.4344,646.05664,334.4793,646.05664Q342.7249,646.05664,352.12085,594.3751L368.73315,654.05334Q369.70642,658.49866,369.49524,671.7687L371.2251,673.21375L370.59705,688.411Q370.98083,689.2875,371.95776,689.2875Q372.07697,689.2875,372.20496,689.2744L429.72375,696.0067Q433.2094,696.46924,435.6145,696.46924Q438.9591,696.46924,440.2146,695.5747Q444.6277,688.6869,439.9508,683.7477Q414.29297,671.6752,405.96277,664.5708L410.6073,663.9895L407.2484,642.9906Q404.41223,629.9702,393.81458,614.22766Q395.8379,595.58716,390.67944,580.8224Q395.85577,572.72473,391.953,539.1416L388.09796,525.2612Q377.11346,502.27408,366.64063,473.66623Q370.8645,465.35245,368.27448,461.5458L370.271,458.6295Q388.87653,474.8965,401.35852,482.0662L494.43066,672.8324L511.20905,683.19006L492.9038,704.24915Q492.61316,705.23706,493.5324,705.819L502.17627,713.973L554.23126,699.4878Q555.3126,699.0812,554.99646,698.06836L540.8948,678.69543L534.6947,674.45764L526.3249,676.8351L521.6801,675.3441L504.22876,664.2212L429.21277,514.536L434.09875,514.5062L434.0514,509.80356L434.05554,509.80356Q434.0962,509.80392,434.13654,509.80392Q441.44775,509.80392,446.4981,496.9083L443.68372,492.4366Q443.5183,492.93008,442.96417,492.93008Q438.66327,492.93008,410.94592,463.19907Q401.92682,453.8278,397.9485,442.78793Q395.21136,438.97983,389.33026,433.2991L391.27863,413.20932Q406.97876,384.02023,408.2641,350.32968Q408.1319,349.0873,413.0594,347.70438Q420.3407,353.5942,422.12158,353.5942Q422.45776,353.5942,422.59796,353.38437L436.3053,345.09158Q437.5725,345.28043,438.52313,345.28043Q440.3883,345.28043,441.0348,344.55368L441.2544,337.20486L443.63947,333.45035Q449.24084,332.28568,450.59894,329.17587Q452.1632,326.52872,452.76025,318.36795Q465.00812,315.1749,465.2011,312.16696Q466.50134,310.57156,460.32483,302.2028Q459.97308,295.84103,458.43506,295.00052Q443.5722,282.73965,435.05133,282.73965 Z"/> </g> </g> </svg>